<?xml version="1.0" encoding="UTF-8" standalone="no"?>
<!DOCTYPE svg PUBLIC "-//W3C//DTD SVG 1.1//EN" "http://www.w3.org/Graphics/SVG/1.1/DTD/svg11.dtd">
<svg xmlns="http://www.w3.org/2000/svg" version="1.1" viewBox="0.00 0.00 1340.00 865.00">
<path fill="#ea2229" d="
  M 450.02 475.90
  Q 463.25 536.92 504.16 584.63
  Q 504.54 585.08 504.13 585.50
  Q 492.57 597.46 480.61 607.35
  Q 427.55 651.21 358.96 658.86
  Q 327.19 662.40 295.58 658.19
  Q 235.18 650.14 186.92 613.34
  Q 164.49 596.23 145.27 573.77
  Q 98.94 519.62 91.08 448.75
  Q 88.64 426.72 89.99 404.25
  Q 94.63 327.19 143.59 268.33
  Q 160.39 248.13 180.64 231.42
  C 216.25 202.02 259.32 184.78 305.60 180.63
  Q 330.17 178.42 354.13 180.62
  Q 425.41 187.15 480.45 232.50
  Q 503.66 251.62 522.46 275.72
  Q 561.43 325.66 569.27 389.25
  Q 571.29 405.64 570.98 424.02
  Q 570.83 433.62 571.62 439.39
  Q 575.79 469.68 593.12 494.67
  C 613.38 523.89 644.21 543.99 679.25 549.56
  Q 699.27 552.74 720.10 550.10
  Q 756.45 545.49 784.77 521.76
  Q 798.07 510.62 808.09 497.08
  Q 827.74 470.53 831.82 438.09
  Q 834.25 418.78 831.53 399.79
  Q 826.63 365.54 804.15 338.28
  Q 788.14 318.87 767.12 306.03
  Q 766.26 305.50 767.27 305.50
  L 913.53 305.50
  Q 913.96 305.50 914.17 305.88
  Q 938.11 349.41 941.97 399.53
  Q 944.11 427.39 940.58 453.92
  Q 931.71 520.68 888.53 571.56
  Q 871.18 592.00 850.39 608.87
  Q 796.81 652.33 727.56 659.20
  Q 704.55 661.48 681.33 659.68
  Q 599.56 653.34 539.26 596.98
  Q 518.09 577.20 503.20 556.15
  Q 475.25 516.63 465.84 468.98
  Q 461.91 449.11 461.36 427.57
  Q 460.85 407.85 460.83 407.58
  Q 457.64 371.61 436.15 342.96
  Q 427.33 331.20 415.30 320.59
  Q 388.33 296.80 354.31 290.77
  Q 336.00 287.53 316.32 289.35
  Q 283.38 292.39 256.51 310.99
  Q 239.19 322.98 226.23 339.22
  Q 203.96 367.13 199.74 402.51
  C 196.77 427.40 199.91 453.12 210.54 475.70
  Q 223.03 502.22 245.13 520.75
  Q 273.55 544.58 308.53 549.69
  Q 334.57 553.50 359.26 548.27
  C 395.22 540.64 425.51 516.59 444.24 485.23
  Q 447.40 479.95 449.21 475.82
  Q 449.74 474.61 450.02 475.90
  Z"
/>
<path fill="#ffffff" d="
  M 1153.60 491.16
  L 1250.92 659.72
  A 0.53 0.53 0.0 0 1 1250.46 660.51
  L 1126.19 660.51
  Q 1125.46 660.51 1125.17 660.00
  L 1039.87 512.26
  Q 1039.58 511.75 1038.99 511.75
  L 943.76 511.75
  A 0.27 0.26 10.5 0 1 943.51 511.39
  Q 956.30 477.28 958.87 440.71
  Q 960.02 424.25 959.75 418.25
  Q 959.41 410.61 959.26 402.75
  Q 959.25 402.25 959.75 402.25
  Q 983.04 402.25 994.24 402.25
  C 996.84 402.25 999.54 402.50 1001.59 402.49
  Q 1033.35 402.35 1063.57 402.75
  Q 1077.55 402.93 1083.48 401.74
  Q 1101.62 398.09 1114.61 383.59
  Q 1132.29 363.84 1128.67 337.03
  Q 1126.94 324.23 1119.35 313.68
  C 1110.98 302.02 1099.08 293.10 1084.99 289.98
  Q 1079.51 288.77 1068.40 288.77
  Q 886.71 288.72 705.02 288.78
  Q 691.94 288.78 685.07 289.59
  Q 653.64 293.28 627.94 311.18
  C 608.63 324.62 592.63 342.49 582.71 363.47
  Q 582.25 364.44 582.02 363.39
  Q 568.27 302.56 527.56 255.45
  Q 527.23 255.07 527.58 254.70
  Q 530.13 252.07 532.21 249.95
  Q 596.88 183.94 689.78 179.78
  Q 695.67 179.51 709.78 179.49
  Q 896.02 179.26 1075.84 179.57
  Q 1112.81 179.63 1146.81 196.80
  Q 1155.95 201.41 1163.93 206.89
  Q 1193.25 227.02 1212.63 256.41
  Q 1233.03 287.36 1237.36 325.58
  Q 1241.36 360.87 1231.23 394.29
  Q 1228.33 403.88 1224.14 412.97
  C 1209.34 445.11 1184.90 473.14 1153.81 490.41
  A 0.55 0.54 -29.6 0 0 1153.60 491.16
  Z"
/>
</svg>
